<?xml version="1.0"?>
<svg xmlns="http://www.w3.org/2000/svg" xmlns:xlink="http://www.w3.org/1999/xlink" xmlns:svgjs="http://svgjs.com/svgjs" version="1.1" width="512" height="512" x="0" y="0" viewBox="0 0 511.941 511.941" style="enable-background:new 0 0 512 512" xml:space="preserve" class=""><g>
<g xmlns="http://www.w3.org/2000/svg">
	<g>
		<g>
			<polygon points="51.437,302.03 0,353.467 19.777,373.498 67.457,326.05    " fill="#ffffff" data-original="#000000" style="" class=""/>
			<path d="M382.612,155.953c1.671-1.672,3.135-3.538,4.362-5.558l21.415-36.286c0.357-2.403-0.265-4.848-1.727-6.788     c-0.287-0.39-0.602-0.758-0.943-1.1c-2.059-2.088-4.984-3.079-7.888-2.674l-36.344,21.455c-1.999,1.218-3.845,2.67-5.5,4.326     l-13.312,13.313l26.625,26.625L382.612,155.953z" fill="#ffffff" data-original="#000000" style="" class=""/>
			<path d="M183.748,301.567c2.676,1.745,5.166,3.759,7.43,6.012l13.183,13.183c2.253,2.265,4.267,4.755,6.012,7.43l145.997-145.997     l-26.625-26.625L183.748,301.567z" fill="#ffffff" data-original="#000000" style="" class=""/>
			<path d="M290.322,103.212l29.672-29.673c5.523-5.531,5.521-14.491-0.007-20.018c-5.619-5.318-14.414-5.32-20.036-0.005     l-136.926,136.93c20.356-3.528,40.134-9.827,58.782-18.719L290.322,103.212z" fill="#ffffff" data-original="#000000" style="" class=""/>
			<polygon points="65.924,419.391 65.924,419.645 92.295,446.016 105.817,432.663 79.237,406.078    " fill="#ffffff" data-original="#000000" style="" class=""/>
			<path d="M158.348,293.976c2.178,0.06,4.35,0.272,6.499,0.635l142.939-142.943c-22.758,3.823-44.225,13.191-62.505,27.277     c-4.59,3.229-9.402,6.132-14.4,8.686c-0.19,0.089-0.354,0.222-0.549,0.297c-42.703,22.026-106.765,27.905-143.748,29.374     c-10.136,0.32-19.819,4.272-27.283,11.136l73.308,73.308C140.226,296.656,149.187,293.951,158.348,293.976z" fill="#ffffff" data-original="#000000" style="" class=""/>
			<path d="M96.479,336.611l22.57-22.568L46.276,241.27l-2.83,2.831c-3.029,3.86-2.994,9.3,0.085,13.121L96.479,336.611z" fill="#ffffff" data-original="#000000" style="" class=""/>
			<path d="M438.396,191.951l-29.669,29.668l-68.515,68.514c-8.892,18.648-15.19,38.425-18.718,58.781l136.929-136.925     c5.522-5.537,5.522-14.499,0-20.036C452.819,186.607,444.003,186.605,438.396,191.951z" fill="#ffffff" data-original="#000000" style="" class=""/>
			<path d="M324.319,281.044c2.553-4.994,5.453-9.803,8.681-14.39c14.087-18.294,23.463-39.768,27.304-62.536L217.329,347.093     c0.363,2.149,0.575,4.32,0.635,6.499c0.025,9.161-2.68,18.122-7.77,25.739l73.306,73.306     c6.865-7.462,10.818-17.143,11.138-27.277v0c1.468-36.984,7.347-101.04,29.373-143.747     C324.089,281.412,324.227,281.241,324.319,281.044z" fill="#ffffff" data-original="#000000" style="" class=""/>
			<path d="M503.678,8.252c-6.925-6.921-16.945-9.754-26.469-7.482l-69.205,16.473c-5.035,1.237-9.641,3.817-13.326,7.464     l-61.757,61.759l-0.007,0.008l-53.465,53.464c14.919-5.855,30.983-8.212,46.955-6.888l16.652-16.652     c2.728-2.727,5.775-5.115,9.076-7.112l37.702-22.255c0.743-0.437,1.544-0.767,2.379-0.982c9.472-2.425,19.52,0.328,26.433,7.241     s9.666,16.962,7.241,26.433c-0.215,0.835-0.545,1.636-0.982,2.379l-22.219,37.643c-2.005,3.322-4.405,6.389-7.147,9.134     l-16.591,16.591c1.278,16.004-1.105,32.089-6.969,47.036l53.486-53.486l0.006-0.004l61.764-61.761     c3.664-3.707,6.249-8.341,7.478-13.406l16.46-69.134h0C513.441,25.192,510.603,15.173,503.678,8.252z" fill="#ffffff" data-original="#000000" style="" class=""/>
			<path d="M175.329,415.461l79.39,52.948v0c3.82,3.074,9.256,3.109,13.116,0.085l2.833-2.832l-72.771-72.771L175.329,415.461z" fill="#ffffff" data-original="#000000" style="" class=""/>
			<path d="M199.678,353.594c0-7.466-2.966-14.625-8.246-19.904l-13.183-13.183c-5.279-5.28-12.438-8.246-19.904-8.246     s-14.625,2.966-19.904,8.246l-59.335,59.585l6.594,6.594l39.554,39.554l6.594,6.594l59.585-59.335     C196.712,368.219,199.678,361.06,199.678,353.594z" fill="#ffffff" data-original="#000000" style="" class=""/>
			<polygon points="138.442,491.904 158.219,511.94 209.89,460.49 185.874,444.472    " fill="#ffffff" data-original="#000000" style="" class=""/>
		</g>
	</g>
</g>
<g xmlns="http://www.w3.org/2000/svg">
</g>
<g xmlns="http://www.w3.org/2000/svg">
</g>
<g xmlns="http://www.w3.org/2000/svg">
</g>
<g xmlns="http://www.w3.org/2000/svg">
</g>
<g xmlns="http://www.w3.org/2000/svg">
</g>
<g xmlns="http://www.w3.org/2000/svg">
</g>
<g xmlns="http://www.w3.org/2000/svg">
</g>
<g xmlns="http://www.w3.org/2000/svg">
</g>
<g xmlns="http://www.w3.org/2000/svg">
</g>
<g xmlns="http://www.w3.org/2000/svg">
</g>
<g xmlns="http://www.w3.org/2000/svg">
</g>
<g xmlns="http://www.w3.org/2000/svg">
</g>
<g xmlns="http://www.w3.org/2000/svg">
</g>
<g xmlns="http://www.w3.org/2000/svg">
</g>
<g xmlns="http://www.w3.org/2000/svg">
</g>
</g></svg>
